<svg width="64" height="64" viewBox="0 0 64 64" fill="none" xmlns="http://www.w3.org/2000/svg">
<path d="M32 0.5C44.1614 0.5 51.9841 2.69292 56.7886 7.63911C61.5964 12.5887 63.5 20.4152 63.5 32C63.5 43.5848 61.5964 51.4113 56.7886 56.3609C51.9841 61.3071 44.1614 63.5 32 63.5C19.8386 63.5 12.0159 61.3071 7.21138 56.3609C2.4036 51.4113 0.5 43.5848 0.5 32C0.5 20.4152 2.4036 12.5887 7.21138 7.63911C12.0159 2.69292 19.8386 0.5 32 0.5Z" fill="white" stroke="#EAEAEA"/>
<path d="M51.9997 32C51.9997 43.0456 43.0463 52 32.0019 52C20.9572 52 12.0039 43.0456 12.0039 32C12.0039 20.9544 20.9573 12 32.0019 12C43.0463 12 51.9997 20.9544 51.9997 32Z" fill="white"/>
<path d="M31.8343 19.1105C32.5383 19.5142 33.2852 20.0338 33.8535 20.5846L33.6303 20.8077C32.5084 20.6891 31.327 20.8373 30.2635 20.8536C30.145 20.7346 29.9061 20.5556 30.1285 20.406L31.8343 19.1105ZM51.6689 32.9751C51.6838 33.4788 51.7314 33.9114 51.5339 34.4271C49.4846 35.0072 48.1385 32.8483 46.1501 33.1738L46.3749 34.2928C48.2144 34.353 49.3636 36.1084 51.2639 36.0329C50.994 36.5694 51.3844 37.9831 50.1883 37.4181C48.9465 37.1211 48.0487 36.0329 46.6881 36.0329C46.524 36.3327 46.628 36.748 46.5991 37.1029C48.0345 37.3268 49.067 38.534 50.5019 38.7569C50.3669 39.2476 50.2332 39.797 49.8288 40.0962C48.6615 39.8135 47.7495 38.7703 46.5066 38.8001L46.2854 39.8277C47.4663 39.8579 48.2298 40.8976 49.2911 41.2099C49.3203 41.6432 48.9311 42.0306 48.7065 42.4174C47.7643 42.1359 47.0458 41.3303 45.969 41.3898C45.954 40.9861 46.1948 40.5279 46.1039 40.0962C44.8947 40.4542 44.0838 39.3362 43.1875 38.6654C43.1619 36.4709 40.8399 35.031 40.7173 32.9752C40.6936 32.5652 40.7564 32.1278 40.9442 31.6574C41.7074 29.9018 41.4676 27.6223 40.6309 25.9854C40.3764 25.5545 39.9261 25.2146 39.5063 24.9612C40.1204 26.2567 40.8692 27.7873 40.4954 29.3795C40.4521 30.609 39.7229 31.79 39.7147 32.9752C39.7118 33.3979 39.8026 33.8205 40.0469 34.2472C41.0195 35.9905 42.7698 37.6409 42.1117 39.8274C41.9307 40.499 41.3921 41.0182 41.2574 41.7017C42.3955 42.6396 43.4716 43.6966 44.9818 43.756C45.5199 43.414 45.221 41.8976 46.3279 42.5972L47.9442 43.4016C47.8265 43.832 47.4642 44.2178 47.1361 44.5142C46.5229 44.2174 45.9247 43.8613 45.1601 43.8903C44.9347 44.1284 44.7407 44.3956 44.7578 44.7371C45.2959 44.8253 45.7896 45.0511 46.2389 45.3643C46.0301 45.8115 45.6234 46.0916 45.2495 46.4342L43.9959 45.9882C43.7865 46.2863 43.3517 46.5993 43.5043 46.9265C43.7873 47.0469 44.101 47.2099 44.3091 47.4187C43.7559 48.0139 43.0544 48.3969 42.3795 48.8008C41.7981 46.9101 39.8825 45.5846 40.047 43.3981L39.958 43.3096C39.5079 43.8134 39.6582 44.6187 39.6872 45.2725C40.2261 46.6419 41.5115 47.6997 41.7064 49.2015C41.4814 49.5881 40.9741 49.6651 40.5846 49.8286C40.63 47.1211 36.5019 45.0674 39.1492 42.3286C40.032 40.9874 41.5112 39.7076 40.9871 37.8611C40.449 36.0783 38.5457 34.9736 38.5625 32.9752L38.5656 32.8193C38.999 30.7352 40.3159 28.5176 39.2387 26.3005C38.9383 25.4087 38.2675 24.3953 37.3553 24.0226C38.7155 25.5716 39.2547 28.0993 38.4766 30.1838C38.0843 31.0131 37.5443 32.0008 37.4903 32.9755H37.4869C37.458 33.4845 37.5624 33.9909 37.8927 34.4708C38.9253 36.1383 40.7193 37.9698 39.6874 40.1427C38.5209 41.8832 36.4867 43.6536 37.6229 45.9462C38.4453 47.3152 39.7179 48.6813 39.3744 50.3644L38.0285 50.8106C38.9258 47.6713 34.5278 45.8267 36.3691 42.6863C37.5056 41.0048 39.5387 39.4269 38.3877 37.195C37.6998 35.8122 36.2783 34.9937 36.323 33.2657L36.372 32.9754C36.8352 30.5245 38.7079 28.2044 37.3983 25.5854C37.0543 24.8119 36.3668 24.0235 35.6037 23.5767L35.5577 23.6225C37.084 25.0958 37.5482 27.52 36.7253 29.4686C36.3414 30.6119 35.4986 31.7508 35.3275 32.9758C35.2459 33.5536 35.3146 34.1522 35.6499 34.7829C36.622 36.3145 38.3268 37.9393 37.2631 39.9195C36.1428 41.5549 34.2726 43.1465 35.0196 45.2734C35.8426 47.1343 37.5605 48.9071 36.633 51.2144L35.2439 51.5265C36.3503 49.278 34.6914 47.0465 33.7194 45.0964C32.5372 42.2983 36.2594 40.9585 36.3192 38.4005C36.3051 36.7493 34.5408 35.8118 34.1682 34.294C33.4046 33.653 32.6132 34.5488 31.7004 34.3825C31.0266 34.5172 29.9916 33.4595 29.5894 34.6061C29.1104 36.2869 26.9279 37.5225 27.8869 39.5162C28.7997 41.2879 30.9961 42.5833 30.2624 44.8761C29.6055 47.0175 27.4353 49.0566 28.7813 51.5265C28.2283 51.3484 27.196 51.6896 27.2109 50.8107C26.3587 47.8197 29.9927 46.0769 28.8703 43.0873C28.348 41.2562 25.968 40.2447 26.492 38.0421C26.8793 36.2292 28.924 34.9617 28.6372 32.9758C28.6117 32.8012 28.5705 32.6293 28.514 32.4621C27.7509 30.3191 26.1939 28.1754 27.1219 25.6742C27.3767 24.96 27.8856 24.35 28.3328 23.7114C26.8519 24.4998 26.1049 26.1671 26.1356 27.8633C26.071 29.7078 27.4404 31.2879 27.6352 32.9758C27.7119 33.657 27.5997 34.3546 27.1219 35.0946C26.1505 36.406 24.88 37.7889 25.4625 39.5158C26.0163 41.2578 28.1998 42.3132 28.0653 44.3378C28.0504 46.733 25.2534 48.2241 26.0461 50.9027L24.654 50.4534C24.1013 48.073 26.6435 46.8554 26.6727 44.653C27.0325 42.1205 23.7861 41.1809 23.981 38.712C23.967 36.8362 25.6264 35.6483 26.3593 34.0705C26.4849 33.6865 26.5268 33.3239 26.51 32.9759C26.4202 31.2314 24.8404 29.8677 25.1026 27.9062C25.1908 26.4627 25.6843 25.1973 26.627 24.1118C25.3264 24.6316 24.7892 26.1212 24.4299 27.3715C23.8064 29.3764 25.2947 31.1798 25.4438 32.9759C25.51 33.7692 25.3153 34.5578 24.5652 35.3641C23.4877 36.6274 22.395 38.2217 23.1729 39.9197C23.9967 41.7933 26.5848 43.2516 25.4622 45.5884C24.8498 47.0621 23.3833 48.1774 23.4436 49.9181C23.055 49.7544 22.6519 49.5912 22.3217 49.2942C22.3217 47.0773 25.4913 45.6926 23.9811 43.3561C23.8473 43.817 23.8185 44.4436 23.7138 44.9644C23.1897 46.3193 22.0684 47.4037 21.6488 48.8045C20.9471 48.5351 20.2134 47.969 19.6297 47.3736L20.4382 46.8815C20.3483 46.5831 20.1094 46.3304 19.9004 46.0774C19.3755 46.0041 19.0307 46.3469 18.5978 46.4812C18.2239 46.153 17.863 45.8554 17.5649 45.4535C17.8333 44.6931 19.9302 45.3219 18.8679 44.0714C18.1507 43.6254 17.4309 44.2627 16.8028 44.5603L15.9515 43.4903C16.6844 43.0443 17.4154 42.4177 18.327 42.5975C18.5517 43 18.5673 43.5918 19.0001 43.802C20.5409 43.7723 21.6326 42.6126 22.8138 41.7045C21.9905 40.4857 21.3204 38.8031 22.0517 37.329C22.6375 35.852 24.1644 34.6079 24.2335 32.975C24.2492 32.6035 24.191 32.2124 24.0276 31.7916C23.2204 29.7227 22.9355 26.9264 24.4763 25.0952C23.6385 25.3192 23.1445 26.3582 22.8599 27.147C21.9337 29.1672 23.1051 31.0389 23.1456 32.9748C23.1511 33.3232 23.1228 33.6721 23.0379 34.0237C22.2449 35.6159 20.9601 37.013 20.7514 38.8452C19.8388 39.4245 19.0895 40.4374 17.7891 40.0956C17.7433 40.4376 17.8481 40.9588 17.9673 41.3462C16.9361 41.303 16.2329 42.0594 15.3648 42.4164C14.9021 42.2688 14.7818 41.6738 14.6027 41.2577C15.619 40.9161 16.3522 39.9023 17.5191 39.9183C17.6543 39.5443 17.4432 39.2017 17.3837 38.8449C15.9321 38.204 13.6313 42.0139 13.4378 38.7106C14.8883 38.6214 15.815 37.2816 17.2517 37.1481L17.2945 36.0781C15.6643 35.9144 14.6156 37.5818 12.986 37.4175L12.6266 35.9896C14.5117 36.1067 15.6347 34.4259 17.4299 34.3355C17.6685 34.0234 17.6972 33.5621 17.7432 33.131C15.7837 32.8768 14.4392 35.0376 12.3594 34.3814C12.3594 34.3814 12.2877 33.4821 12.2488 32.975H12.2517C12.2438 32.8628 12.2346 32.7506 12.2241 32.6387C14.0786 33.3545 15.708 32.0292 17.2945 31.3451C17.698 31.225 18.3273 31.4333 18.5081 30.9871C18.4926 30.6448 19.12 30.2445 18.5976 30.0057C16.2782 29.6924 14.7374 32.4761 12.3591 31.2104L12.1807 30.8524C12.675 24.1264 16.4873 17.6239 22.8135 14.4241C25.3755 12.9672 28.5585 12.2247 31.7686 12.1983C35.6424 12.1661 39.5571 13.1774 42.469 15.2284C45.2967 16.9541 48.0015 19.7984 49.4694 22.6857C50.8735 25.2156 51.5195 28.0543 51.7126 31.0762C49.2591 32.9208 47.6132 29.3386 45.1148 30.1403C45.2492 30.5279 45.3239 30.9291 45.6096 31.2564C47.8238 31.2408 49.3485 33.5478 51.6665 32.6385L51.6689 32.9751ZM23.4862 24.6916C21.9303 23.6795 19.9579 24.6326 18.508 25.1839C18.3734 23.829 17.8204 22.5946 16.6673 21.7018C16.5555 21.6463 16.4008 21.5299 16.2615 21.5212C16.1782 21.516 16.0989 21.5496 16.0373 21.6555C16.5599 24.8547 14.4698 27.0869 12.9887 29.5137C13.4819 29.9146 14.2742 29.8548 14.8724 29.7368C16.4425 29.1122 17.9382 28.0247 19.8077 28.3974C20.3607 27.4599 21.2895 26.5518 22.0512 25.8079C22.5167 25.4071 23.1558 25.1528 23.4862 24.6916ZM28.2432 26.7007C28.2132 26.8934 28.2581 27.2369 28.5566 27.1041C29.021 26.4642 29.8432 26.9706 30.3514 27.0155V26.8354C30.0726 26.3997 29.499 26.181 28.9163 26.2027C28.7818 26.2075 28.6452 26.2269 28.5137 26.2574C28.3189 26.3005 28.1831 26.4778 28.2432 26.7007ZM35.557 24.7837C35.1393 23.8607 34.182 23.4872 33.3135 23.2639C32.8876 23.2118 32.4457 23.1766 32.0073 23.1723C31.9252 23.1715 31.8432 23.1704 31.7613 23.1723C30.5354 23.1969 29.3639 23.5101 28.6482 24.5142C28.5455 24.7977 28.0938 25.1958 28.5132 25.4499C29.4556 25.3901 30.5309 25.2725 31.1591 26.077C31.1591 26.7922 31.6232 27.7434 30.8457 28.0857C30.2015 27.4923 29.4386 28.3385 28.7377 27.8622C28.4082 27.6684 28.1997 27.8944 28.0647 28.1772C27.8699 30.0221 28.8409 32.0583 30.5754 33.0848C31.2785 33.3371 32.2235 33.577 32.9572 33.2191C34.7219 32.4015 35.4529 30.5275 35.7818 28.8009C35.7377 28.4724 35.7532 27.8321 35.29 27.8164C34.7668 28.1458 34.0038 27.9512 33.4495 27.8164C33.1215 27.9217 33.1065 28.3991 32.7334 28.4895L32.506 28.309C32.3112 27.4916 32.1911 26.3306 32.9548 25.7649C33.8081 25.4226 34.8101 25.2732 35.6924 25.5418C35.8571 25.259 35.603 25.0365 35.557 24.7837ZM34.6566 26.251C34.5973 26.2526 34.5397 26.2555 34.4811 26.2574C34.1678 26.4654 33.2545 26.3158 33.5843 27.0155C34.1529 26.568 34.9456 26.8816 35.514 27.1041C35.724 27.0004 35.6787 26.792 35.6923 26.6122C35.5097 26.2744 35.0738 26.2428 34.6566 26.251ZM41.1685 19.9587C40.0614 19.9002 39.1344 20.5256 38.1171 20.8084C38.0286 19.9471 38.6861 19.0376 38.8361 18.173C37.1915 18.2783 35.8887 19.2634 34.5279 20.0503C34.2121 19.2915 33.8976 18.5322 33.5846 17.7723L35.3795 16.0754L35.4255 15.8518L33.0009 15.7174C32.5835 14.9894 32.4188 14.1125 31.9253 13.4428C31.5214 14.2019 31.2501 15.0051 30.8466 15.7632L28.4251 15.8979V16.0754L30.263 17.7265C30.0383 18.5752 29.8295 19.4974 29.2765 20.1387C28.1998 19.497 27.1382 18.7987 25.9577 18.3529C25.6736 18.2618 25.2686 18.1134 25.0144 18.3071C25.3877 19.126 25.9106 20.0067 25.8227 20.9003C25.3287 20.8099 24.9405 20.4948 24.4766 20.3624C23.9217 20.2116 23.2634 19.9174 22.7251 20.0964C23.6227 21.3457 24.3553 22.6534 24.6087 24.1569C27.5864 22.7268 31.059 21.9403 34.6637 22.5516C36.3535 22.819 37.9071 23.5039 39.4181 24.068C39.4771 22.4915 40.4789 21.2247 41.1685 19.9587ZM46.2821 28.5319C47.8065 28.9332 49.3356 30.5859 50.9499 29.5137C49.5439 27.1925 47.4514 25.0488 48.0335 22.0135C48.0944 21.8063 47.9596 21.5965 47.7662 21.5671C46.8542 21.9379 46.1478 22.832 45.7869 23.7106C45.6385 24.2305 45.5508 24.7829 45.3417 25.2729C44.249 24.707 43.0833 24.1591 41.7523 24.2914C41.272 24.3509 40.5842 24.3822 40.4954 24.8726C42.0058 25.6758 43.248 27.0162 44.1739 28.4437C44.8187 28.3393 45.6092 28.4285 46.2821 28.5319ZM30.3084 30.6298L30.3514 30.8989C30.9359 31.2861 31.1157 31.9427 31.9249 31.8832C32.6424 31.9255 33.1807 31.2566 33.5381 30.7212C32.5673 30.5877 31.3855 30.7941 30.3084 30.6298ZM31.1163 29.4251C31.1455 29.5442 31.0422 29.7228 31.2053 29.7831C31.6841 29.6797 32.5512 30.0365 32.8185 29.4709C32.6317 29.2629 32.3272 29.1684 32.0073 29.1684C31.6877 29.1684 31.3562 29.261 31.1163 29.4251Z" fill="#106E33"/>
<path opacity="0.99" d="M30.3105 28.9084H33.5902V30.249H30.3105V28.9084Z" fill="white"/>
<path d="M30.9166 29.6248C31.3404 29.7246 31.4452 29.874 31.78 29.9159C32.1363 29.9096 32.085 29.8377 32.7057 29.6244C32.7467 29.6101 32.8027 29.5205 32.7333 29.4518C32.3475 29.0711 32.0809 29.3432 31.8394 29.3504C31.5185 29.3538 31.2179 29.0773 30.9046 29.4369C30.8512 29.5098 30.8234 29.5816 30.9166 29.6248Z" fill="#106E33"/>
</svg>
